<?xml version="1.0" encoding="UTF-8"?>
<svg id="Capa_2" data-name="Capa 2" xmlns="http://www.w3.org/2000/svg" viewBox="0 0 12 12">
  <defs>
    <style>
      .cls-1 {
        fill: #4c48f7;
      }
    </style>
  </defs>
  <g id="Capa_1-2" data-name="Capa 1">
    <path class="cls-1" d="M6,0C2.69,0,0,2.69,0,6s2.69,6,6,6,6-2.69,6-6S9.31,0,6,0M8.43,8.7c-.49.41-1.09.53-1.72.41-.66-.15-1.22-.54-1.71-.98-.51-.45-.94-.99-1.31-1.55-.17-.27-.32-.55-.43-.85-.11-.31-.15-.61-.2-.94,0,0,0-.06,0-.11.02-.56.26-1.05.67-1.43.17-.16.41-.45.67-.42.27.04.47.34.6.55.23.36.62.9.26,1.31-.17.2-.43.3-.59.51-.15.21-.06.49.05.71.25.49.66.95,1.08,1.3.19.15.44.34.7.3.26-.05.47-.34.67-.5.5-.4,1.04.15,1.41.48.17.15.37.36.36.61-.01.25-.34.46-.51.61"/>
  </g>
</svg>